<svg xmlns="http://www.w3.org/2000/svg" width="1024" height="1024" viewBox="0 0 1024 1024"><rect width="100%" height="100%" fill="#007BFF"/><path fill="#FFFFFF" d="M327.435 553.405q2.32 0 4.11 1.8l11.18 12.13q-9.28 11.5-22.84 17.62-13.55 6.12-32.54 6.12-16.99 0-30.55-5.8-13.55-5.81-23.15-16.15-9.6-10.33-14.72-24.68t-5.12-31.34q0-17.19 5.49-31.49 5.49-14.29 15.46-24.63t23.79-16.09 30.59-5.75q16.67 0 29.59 5.49 12.93 5.48 22 14.34l-9.49 13.19q-.85 1.27-2.17 2.22t-3.64.95q-1.58 0-3.27-.9t-3.69-2.22q-2.01-1.32-4.64-2.9-2.64-1.58-6.12-2.9t-8.07-2.21q-4.59-.9-10.61-.9-10.23 0-18.72 3.64t-14.61 10.55-9.5 16.88q-3.37 9.97-3.37 22.73 0 12.87 3.64 22.9 3.64 10.02 9.86 16.88 6.22 6.85 14.66 10.49t18.15 3.64q5.8 0 10.5-.63 4.69-.63 8.65-2 3.96-1.38 7.49-3.54t7.01-5.33q1.06-.94 2.22-1.53 1.16-.58 2.43-.58m78.59-73.95q12.03 0 21.9 3.9 9.86 3.91 16.88 11.08 7.01 7.17 10.81 17.51t3.8 23.11q0 12.87-3.8 23.21t-10.81 17.62q-7.02 7.28-16.88 11.18-9.87 3.9-21.9 3.9-12.13 0-22.05-3.9-9.91-3.9-16.93-11.18-7.01-7.28-10.86-17.62-3.86-10.34-3.86-23.21 0-12.77 3.86-23.11 3.85-10.34 10.86-17.51 7.02-7.17 16.93-11.08 9.92-3.9 22.05-3.9m0 91.47q13.51 0 20-9.08 6.48-9.07 6.48-26.58t-6.48-26.69q-6.49-9.18-20-9.18-13.71 0-20.3 9.23-6.6 9.23-6.6 26.64t6.6 26.53q6.59 9.13 20.3 9.13m95.9-85.04 1.8 8.55q3.27-3.27 6.91-6.07 3.64-2.79 7.7-4.74 4.06-1.96 8.7-3.06 4.64-1.11 10.13-1.11 8.86 0 15.72 3.01 6.86 3 11.45 8.44 4.59 5.43 6.96 12.97 2.37 7.55 2.37 16.62v68.89h-26.05v-68.89q0-9.92-4.54-15.35t-13.82-5.43q-6.75 0-12.66 3.05-5.91 3.06-11.18 8.34v78.28h-26.06v-108.24h15.93q5.06 0 6.64 4.74m130.09 103.5h-26.06v-88.62l-9.39-1.48q-3.06-.63-4.91-2.16-1.84-1.53-1.84-4.38v-10.65h16.14v-8.02q0-9.29 2.79-16.67 2.8-7.39 8.02-12.55 5.22-5.17 12.71-7.92 7.49-2.74 16.88-2.74 7.49 0 13.93 2l-.53 13.09q-.1 1.47-.84 2.37t-1.95 1.37q-1.22.48-2.8.63-1.58.16-3.38.16-4.64 0-8.28 1-3.64 1.01-6.17 3.49t-3.85 6.54-1.32 10.07v7.18h28.17v18.56h-27.32zm42.83-108.24h26.16v108.24h-26.16zm29.75-31.55q0 3.38-1.37 6.33-1.37 2.96-3.64 5.17-2.27 2.22-5.33 3.54-3.06 1.31-6.54 1.31-3.38 0-6.38-1.31-3.01-1.32-5.23-3.54-2.21-2.21-3.53-5.17-1.32-2.95-1.32-6.33 0-3.48 1.32-6.54t3.53-5.27q2.22-2.22 5.23-3.54 3-1.32 6.38-1.32 3.48 0 6.54 1.32t5.33 3.54q2.27 2.21 3.64 5.27t1.37 6.54m80.18 111.83v-18.25q-11.29.53-18.99 1.95-7.7 1.43-12.34 3.64-4.65 2.22-6.65 5.17-2.01 2.96-2.01 6.44 0 6.86 4.07 9.81 4.06 2.95 10.6 2.95 8.02 0 13.87-2.9 5.86-2.9 11.45-8.81m-55.07-56.86-4.64-8.34q18.67-17.09 44.94-17.09 9.49 0 16.98 3.11 7.5 3.12 12.66 8.66 5.17 5.53 7.86 13.24 2.69 7.7 2.69 16.88v68.36h-11.81q-3.69 0-5.7-1.11-2-1.11-3.16-4.48l-2.32-7.81q-4.12 3.69-8.02 6.49-3.91 2.8-8.13 4.69-4.22 1.9-9.02 2.91-4.8 1-10.6 1-6.86 0-12.66-1.85-5.8-1.84-10.02-5.54-4.22-3.69-6.54-9.18-2.32-5.48-2.32-12.76 0-4.12 1.37-8.18t4.48-7.75 8.07-6.96 12.19-5.7q7.22-2.43 16.83-3.96 9.6-1.53 21.94-1.84v-6.33q0-10.87-4.64-16.09t-13.4-5.22q-6.33 0-10.5 1.47-4.17 1.48-7.33 3.33-3.17 1.84-5.75 3.32-2.59 1.48-5.75 1.48-2.74 0-4.64-1.43-1.9-1.42-3.06-3.32"/></svg>