<svg xmlns="http://www.w3.org/2000/svg" width="1284" height="2778" viewBox="0 0 1284 2778"><rect width="100%" height="100%" fill="#007BFF"/><path fill="#FFFFFF" d="M411.07 1440.815q2.9 0 5.15 2.24l13.99 15.18q-11.62 14.39-28.58 22.05-16.96 7.65-40.72 7.65-21.25 0-38.22-7.26-16.96-7.26-28.97-20.19-12.01-12.94-18.41-30.89-6.41-17.95-6.41-39.21 0-21.51 6.87-39.4 6.86-17.88 19.34-30.82 12.47-12.94 29.76-20.13t38.28-7.19q20.86 0 37.03 6.86t27.52 17.95l-11.88 16.5q-1.06 1.59-2.71 2.77-1.65 1.19-4.55 1.19-1.98 0-4.09-1.12t-4.62-2.77-5.81-3.63-7.66-3.63q-4.35-1.65-10.09-2.77-5.75-1.13-13.27-1.13-12.8 0-23.43 4.56-10.63 4.55-18.28 13.2-7.66 8.64-11.88 21.12-4.23 12.47-4.23 28.44 0 16.11 4.56 28.65 4.55 12.54 12.34 21.12t18.35 13.13q10.56 4.56 22.7 4.56 7.26 0 13.14-.8 5.87-.79 10.82-2.5 4.95-1.72 9.37-4.43 4.42-2.7 8.78-6.66 1.32-1.19 2.77-1.92 1.45-.72 3.04-.72m98.34-92.53q15.05 0 27.39 4.88t21.12 13.86 13.53 21.91q4.75 12.94 4.75 28.91 0 16.1-4.75 29.04t-13.53 22.04q-8.78 9.11-21.12 14-12.34 4.88-27.39 4.88-15.18 0-27.59-4.88-12.41-4.89-21.19-14-8.77-9.1-13.59-22.04t-4.82-29.04q0-15.97 4.82-28.91 4.82-12.93 13.59-21.91 8.78-8.98 21.19-13.86t27.59-4.88m0 114.44q16.89 0 25.01-11.35t8.12-33.27q0-21.91-8.12-33.39-8.12-11.49-25.01-11.49-17.16 0-25.41 11.55t-8.25 33.33 8.25 33.2 25.41 11.42m119.99-106.39 2.24 10.69q4.09-4.09 8.65-7.59 4.55-3.5 9.63-5.94t10.89-3.83q5.81-1.38 12.67-1.38 11.09 0 19.67 3.76t14.32 10.56q5.75 6.8 8.72 16.23 2.97 9.44 2.97 20.79v86.2h-32.61v-86.2q0-12.4-5.67-19.2-5.68-6.8-17.3-6.8-8.44 0-15.84 3.83-7.39 3.83-13.99 10.43v97.94h-32.6v-135.43h19.93q6.34 0 8.32 5.94m162.75 129.49h-32.6v-110.88l-11.75-1.85q-3.83-.79-6.14-2.7-2.31-1.92-2.31-5.48v-13.33h20.2v-10.04q0-11.61 3.5-20.85 3.49-9.24 10.03-15.71 6.53-6.47 15.9-9.9 9.38-3.43 21.12-3.43 9.38 0 17.43 2.51l-.66 16.36q-.13 1.85-1.06 2.97-.92 1.13-2.44 1.72t-3.5.79-4.22.2q-5.81 0-10.36 1.25-4.56 1.26-7.73 4.36-3.16 3.1-4.81 8.18-1.65 5.09-1.65 12.61v8.98h35.24v23.23h-34.19zm53.59-135.43h32.74v135.43h-32.74zm37.23-39.47q0 4.22-1.72 7.92-1.71 3.7-4.55 6.47t-6.67 4.42-8.18 1.65q-4.23 0-7.99-1.65t-6.53-4.42-4.42-6.47-1.65-7.92q0-4.36 1.65-8.18 1.65-3.83 4.42-6.6 2.77-2.78 6.53-4.43t7.99-1.65q4.35 0 8.18 1.65t6.67 4.43q2.84 2.77 4.55 6.6 1.72 3.82 1.72 8.18m100.32 139.92v-22.84q-14.13.66-23.76 2.45-9.64 1.78-15.45 4.55-5.8 2.77-8.31 6.47-2.51 3.69-2.51 8.05 0 8.58 5.08 12.28 5.08 3.69 13.27 3.69 10.03 0 17.36-3.63 7.32-3.63 14.32-11.02m-68.91-71.15-5.8-10.43q23.36-21.38 56.23-21.38 11.88 0 21.25 3.89 9.37 3.9 15.84 10.83t9.83 16.56q3.37 9.64 3.37 21.12v85.54h-14.78q-4.62 0-7.13-1.39-2.51-1.38-3.96-5.61l-2.91-9.76q-5.14 4.62-10.03 8.11-4.88 3.5-10.16 5.88-5.28 2.37-11.29 3.63-6 1.25-13.26 1.25-8.58 0-15.84-2.31t-12.54-6.93-8.19-11.48q-2.9-6.87-2.9-15.97 0-5.15 1.71-10.23 1.72-5.09 5.61-9.71 3.9-4.62 10.1-8.71 6.21-4.09 15.25-7.13 9.04-3.03 21.05-4.95 12.01-1.91 27.46-2.31v-7.92q0-13.59-5.81-20.13-5.81-6.53-16.76-6.53-7.92 0-13.14 1.85-5.21 1.85-9.17 4.16t-7.2 4.15q-3.23 1.85-7.19 1.85-3.43 0-5.81-1.78-2.37-1.78-3.83-4.16"/></svg>